<svg width="17" height="17" viewBox="0 0 17 17" fill="none" xmlns="http://www.w3.org/2000/svg">
<path d="M8.3431 0C3.75477 0 0.0195703 3.74913 0.0179036 8.35854C0.0170703 9.83195 0.401224 11.2703 1.12956 12.5378L0 16.7432L4.36035 15.7082C5.57619 16.3746 6.94488 16.7244 8.33822 16.7253H8.34147C12.929 16.7253 16.6625 12.9753 16.665 8.36672C16.6667 6.13233 15.8018 4.03155 14.2301 2.45099C12.6585 0.871263 10.5698 0.000837162 8.3431 0ZM8.34147 1.67432C10.1215 1.67516 11.7943 2.37235 13.0518 3.63479C14.3093 4.8989 15 6.57858 14.9984 8.36508C14.9967 12.0519 12.0115 15.0509 8.33984 15.0509C7.22901 15.0501 6.12867 14.7699 5.15951 14.2383L4.59798 13.9309L3.97786 14.0781L2.33724 14.4672L2.73763 12.9727L2.91829 12.3024L2.57324 11.7006C1.99158 10.6894 1.68374 9.53308 1.68457 8.35854C1.68624 4.67335 4.6723 1.67432 8.34147 1.67432ZM5.39714 4.49975C5.25797 4.49975 5.03296 4.55207 4.84212 4.76136C4.65129 4.96981 4.11296 5.47469 4.11296 6.50272C4.11296 7.53076 4.8584 8.5245 4.96257 8.6643C5.0659 8.80327 6.40146 10.9796 8.51562 11.8167C10.2723 12.5124 10.6291 12.3751 11.0107 12.34C11.3924 12.3056 12.242 11.8355 12.4154 11.3475C12.5887 10.8594 12.5891 10.4396 12.5374 10.3533C12.4858 10.2663 12.347 10.2144 12.1387 10.1097C11.9312 10.0051 10.9086 9.50064 10.7178 9.43115C10.5269 9.36167 10.3874 9.32651 10.249 9.5358C10.1107 9.74509 9.71314 10.2144 9.59147 10.3533C9.4698 10.4931 9.34896 10.5119 9.14062 10.4073C8.93229 10.3018 8.26245 10.0806 7.46745 9.36902C6.84911 8.81566 6.43189 8.1329 6.31022 7.92361C6.18939 7.71516 6.29883 7.60066 6.403 7.49685C6.49633 7.40309 6.6097 7.25282 6.71387 7.13059C6.8172 7.00837 6.85303 6.92129 6.9222 6.78232C6.99137 6.64335 6.95596 6.52071 6.9043 6.41606C6.85263 6.31142 6.44802 5.27956 6.26302 4.866C6.10719 4.51858 5.9426 4.51051 5.79427 4.50465C5.67344 4.49963 5.53547 4.49975 5.39714 4.49975Z" fill="#25D366"/>
</svg>
