<svg width="453" height="453" viewBox="0 0 453 453" fill="none" xmlns="http://www.w3.org/2000/svg">
<path d="M348.81 54.3601C346.306 54.3601 344.28 56.3862 344.28 58.8901C344.28 61.394 346.306 63.4201 348.81 63.4201C351.314 63.4201 353.34 61.394 353.34 58.8901C353.34 56.3862 351.314 54.3601 348.81 54.3601Z" fill="#F62973"/>
<path d="M226.5 58.8901C133.936 58.8901 58.89 133.936 58.89 226.5C58.89 319.064 133.936 394.11 226.5 394.11C319.064 394.11 394.11 319.064 394.11 226.5C394.11 133.936 319.064 58.8901 226.5 58.8901Z" fill="#C0E5E4"/>
<path d="M375.99 49.8301C365.983 49.8301 357.87 57.9434 357.87 67.9501C357.87 77.9568 365.983 86.0701 375.99 86.0701C385.997 86.0701 394.11 77.9568 394.11 67.9501C394.11 57.9434 385.997 49.8301 375.99 49.8301Z" fill="#F62973"/>
<path d="M394.11 99.6602C389.102 99.6602 385.05 103.712 385.05 108.72C385.05 113.728 389.102 117.78 394.11 117.78C399.118 117.78 403.17 113.728 403.17 108.72C403.17 103.712 399.118 99.6602 394.11 99.6602Z" fill="#00A5A5"/>
<path d="M366.93 335.22C361.922 335.22 357.87 339.272 357.87 344.28C357.87 349.288 361.922 353.34 366.93 353.34C371.938 353.34 375.99 349.288 375.99 344.28C375.99 339.272 371.938 335.22 366.93 335.22ZM67.95 267.27C57.9433 267.27 49.83 275.383 49.83 285.39C49.83 295.397 57.9433 303.51 67.95 303.51C77.9567 303.51 86.07 295.397 86.07 285.39C86.07 275.383 77.9567 267.27 67.95 267.27Z" fill="#F62973"/>
<path d="M113.25 385.05C108.242 385.05 104.19 389.102 104.19 394.11C104.19 399.118 108.242 403.17 113.25 403.17C118.258 403.17 122.31 399.118 122.31 394.11C122.31 389.102 118.258 385.05 113.25 385.05Z" fill="#00A5A5"/>
<path d="M83.805 221.97C77.5497 221.97 72.48 227.04 72.48 233.295C72.48 239.55 77.5497 244.62 83.805 244.62C90.0603 244.62 95.13 239.55 95.13 233.295C95.13 227.04 90.0603 221.97 83.805 221.97ZM360.135 144.96C356.384 144.96 353.34 148.004 353.34 151.755C353.34 155.506 356.384 158.55 360.135 158.55C363.886 158.55 366.93 155.506 366.93 151.755C366.93 148.004 363.886 144.96 360.135 144.96Z" fill="white"/>
<path d="M113.25 202.036V303.51H235.56V308.04H339.75V202.036H113.25Z" fill="#FDFCEE"/>
<path d="M137.599 303.51C137.599 303.51 137.599 260.723 137.599 249.15C137.599 237.577 146.977 228.199 158.55 228.199C170.123 228.199 179.501 237.577 179.501 249.15C179.501 255.326 179.501 303.51 179.501 303.51H137.599Z" fill="#B2B1C2"/>
<path d="M113.25 202.036V208.38H235.56V212.91H339.75V202.036H113.25Z" fill="#CDCBBD"/>
<path d="M332.291 139.979H124.964L104.11 199.771H348.969L332.291 139.979Z" fill="#F62973"/>
<path d="M115.064 199.32H108.72V305.775C108.72 307.023 109.738 308.04 110.985 308.04H235.56V301.696H115.064V199.32Z" fill="#472B29"/>
<path d="M337.936 199.32V306.226H237.374V199.32H231.03V310.305C231.03 311.553 232.048 312.57 233.295 312.57H342.015C343.263 312.57 344.28 311.553 344.28 310.305V199.32H337.936Z" fill="#472B29"/>
<path d="M330.566 142.244L345.988 197.506H107.296L126.575 142.244H330.566ZM332.946 135.9H124.354C122.991 135.9 121.779 136.758 121.328 138.032L99.837 199.639C99.1203 201.7 100.66 203.85 102.863 203.85H350.137C352.252 203.85 353.782 201.851 353.225 199.833L336.034 138.227C335.645 136.856 334.388 135.9 332.946 135.9Z" fill="#472B29"/>
<path d="M288.221 154.02H133.069C132.131 154.02 131.37 153.259 131.37 152.321C131.37 151.383 132.131 150.623 133.069 150.623H288.221C289.159 150.623 289.92 151.383 289.92 152.321C289.92 153.259 289.159 154.02 288.221 154.02ZM283.691 163.08H130.804C129.866 163.08 129.105 162.319 129.105 161.381C129.105 160.443 129.866 159.683 130.804 159.683H283.691C284.629 159.683 285.39 160.443 285.39 161.381C285.39 162.319 284.629 163.08 283.691 163.08ZM279.161 172.14H128.539C127.601 172.14 126.84 171.379 126.84 170.441C126.84 169.503 127.601 168.743 128.539 168.743H279.161C280.099 168.743 280.86 169.503 280.86 170.441C280.86 171.379 280.099 172.14 279.161 172.14Z" fill="#472B29"/>
<path d="M321.63 123.443C320.046 123.443 300.573 123.443 298.98 123.443C297.104 123.443 295.583 124.964 295.583 126.84C295.583 128.716 297.104 130.238 298.98 130.238C300.573 130.238 320.046 130.238 321.63 130.238C323.506 130.238 325.028 128.716 325.028 126.84C325.028 124.964 323.506 123.443 321.63 123.443Z" fill="#FBB97F"/>
<path d="M321.63 131.37H298.98C296.485 131.37 294.45 129.335 294.45 126.84C294.45 124.345 296.485 122.31 298.98 122.31H321.63C324.125 122.31 326.16 124.345 326.16 126.84C326.16 129.335 324.125 131.37 321.63 131.37ZM298.98 124.575C297.732 124.575 296.715 125.593 296.715 126.84C296.715 128.088 297.732 129.105 298.98 129.105H321.63C322.878 129.105 323.895 128.088 323.895 126.84C323.895 125.593 322.878 124.575 321.63 124.575H298.98Z" fill="#472B29"/>
<path d="M320.498 171.008H300.113V130.238H321.064L320.498 171.008Z" fill="#FDD4B2"/>
<path d="M320.498 172.14H300.113C299.484 172.14 298.98 171.636 298.98 171.007V130.237C298.98 129.609 299.484 129.105 300.113 129.105H321.064C321.365 129.105 321.657 129.229 321.869 129.441C322.081 129.654 322.205 129.946 322.196 130.255L321.63 171.025C321.621 171.645 321.117 172.14 320.498 172.14ZM301.245 169.875H319.383L319.914 131.37H301.245V169.875ZM339.184 215.175H259.343C258.714 215.175 258.21 214.671 258.21 214.042C258.21 213.414 258.714 212.91 259.343 212.91H339.184C339.812 212.91 340.316 213.414 340.316 214.042C340.316 214.671 339.812 215.175 339.184 215.175ZM252.548 215.175H245.753C245.124 215.175 244.62 214.671 244.62 214.042C244.62 213.414 245.124 212.91 245.753 212.91H252.548C253.176 212.91 253.68 213.414 253.68 214.042C253.68 214.671 253.176 215.175 252.548 215.175ZM198.188 210.645H113.816C113.188 210.645 112.684 210.141 112.684 209.512C112.684 208.884 113.188 208.38 113.816 208.38H198.188C198.816 208.38 199.32 208.884 199.32 209.512C199.32 210.141 198.816 210.645 198.188 210.645ZM216.308 210.645H209.513C208.884 210.645 208.38 210.141 208.38 209.512C208.38 208.884 208.884 208.38 209.513 208.38H216.308C216.936 208.38 217.44 208.884 217.44 209.512C217.44 210.141 216.936 210.645 216.308 210.645Z" fill="#472B29"/>
<path d="M310.871 246.319V283.691H264.439V232.729H301.811L310.871 246.319Z" fill="#C0E5E4"/>
<path d="M310.871 285.39H264.439C263.501 285.39 262.74 284.629 262.74 283.691V232.729C262.74 231.791 263.501 231.03 264.439 231.03H301.811C302.749 231.03 303.51 231.791 303.51 232.729C303.51 233.667 302.749 234.428 301.811 234.428H266.138V281.993H309.173V246.319C309.173 245.381 309.933 244.62 310.871 244.62C311.809 244.62 312.57 245.381 312.57 246.319V283.691C312.57 284.629 311.809 285.39 310.871 285.39Z" fill="#472B29"/>
<path d="M287.655 285.39C286.717 285.39 285.956 284.629 285.956 283.691V232.729C285.956 231.791 286.717 231.03 287.655 231.03C288.593 231.03 289.354 231.791 289.354 232.729V283.691C289.354 284.629 288.593 285.39 287.655 285.39Z" fill="#472B29"/>
<path d="M220.271 256.511L220.289 232.729H191.976L191.959 265.571H215.741L220.271 256.511Z" fill="#C0E5E4"/>
<path d="M215.741 267.27H191.959C191.508 267.27 191.074 267.093 190.755 266.775C190.437 266.456 190.26 266.023 190.26 265.571L190.278 232.729C190.278 231.791 191.039 231.03 191.976 231.03H220.289C220.74 231.03 221.165 231.207 221.483 231.525C221.802 231.844 221.988 232.278 221.988 232.729L221.97 256.511C221.97 257.449 221.209 258.21 220.271 258.21C219.333 258.21 218.573 257.449 218.573 256.511L218.59 234.428H193.675L193.658 263.873H215.741C216.679 263.873 217.44 264.633 217.44 265.571C217.44 266.509 216.679 267.27 215.741 267.27Z" fill="#472B29"/>
<path d="M206.133 267.208C205.195 267.208 204.434 266.447 204.434 265.509V232.729C204.434 231.791 205.195 231.03 206.133 231.03C207.071 231.03 207.831 231.791 207.831 232.729V265.509C207.831 266.447 207.071 267.208 206.133 267.208ZM179.501 305.209C178.563 305.209 177.803 304.448 177.803 303.51V249.15C177.803 238.533 169.167 229.897 158.55 229.897C147.933 229.897 139.298 238.533 139.298 249.15V303.51C139.298 304.448 138.537 305.209 137.599 305.209C136.661 305.209 135.9 304.448 135.9 303.51V249.15C135.9 236.657 146.057 226.5 158.55 226.5C171.043 226.5 181.2 236.657 181.2 249.15V303.51C181.2 304.448 180.439 305.209 179.501 305.209Z" fill="#472B29"/>
<path d="M171.008 253.68C171.008 256.158 171.008 261.608 171.008 261.608H146.093C146.093 261.608 146.093 260.564 146.093 253.68C146.093 246.797 151.667 241.223 158.55 241.223C165.434 241.223 171.008 246.797 171.008 253.68Z" fill="#C0E5E4"/>
<path d="M171.008 262.74H146.093C145.464 262.74 144.96 262.236 144.96 261.608V253.68C144.96 246.186 151.056 240.09 158.55 240.09C166.044 240.09 172.14 246.186 172.14 253.68V261.608C172.14 262.236 171.636 262.74 171.008 262.74ZM147.225 260.475H169.875V253.68C169.875 247.434 164.796 242.355 158.55 242.355C152.304 242.355 147.225 247.434 147.225 253.68V260.475ZM171.008 276.33H168.743C168.114 276.33 167.61 275.826 167.61 275.198C167.61 274.569 168.114 274.065 168.743 274.065H171.008C171.636 274.065 172.14 274.569 172.14 275.198C172.14 275.826 171.636 276.33 171.008 276.33Z" fill="#472B29"/>
</svg>
